<svg xmlns="http://www.w3.org/2000/svg" viewBox="0 0 2745.2924999999996 867" width="2745.2924999999996" height="867" style="--bg:#1a1b26;--fg:#a9b1d6;--line:#3d59a1;--accent:#7aa2f7;--muted:#565f89;background:var(--bg)">
<style>
  @import url('https://fonts.googleapis.com/css2?family=Inter:wght@400;500;600;700&amp;display=swap');
  text { font-family: 'Inter', system-ui, sans-serif; }
  svg {
    /* Derived from --bg and --fg (overridable via --line, --accent, etc.) */
    --_text:          var(--fg);
    --_text-sec:      var(--muted, color-mix(in srgb, var(--fg) 60%, var(--bg)));
    --_text-muted:    var(--muted, color-mix(in srgb, var(--fg) 40%, var(--bg)));
    --_text-faint:    color-mix(in srgb, var(--fg) 25%, var(--bg));
    --_line:          var(--line, color-mix(in srgb, var(--fg) 30%, var(--bg)));
    --_arrow:         var(--accent, color-mix(in srgb, var(--fg) 50%, var(--bg)));
    --_node-fill:     var(--surface, color-mix(in srgb, var(--fg) 3%, var(--bg)));
    --_node-stroke:   var(--border, color-mix(in srgb, var(--fg) 20%, var(--bg)));
    --_group-fill:    var(--bg);
    --_group-hdr:     color-mix(in srgb, var(--fg) 5%, var(--bg));
    --_inner-stroke:  color-mix(in srgb, var(--fg) 12%, var(--bg));
    --_key-badge:     color-mix(in srgb, var(--fg) 10%, var(--bg));
  }
</style>
<defs>
  <marker id="arrowhead" markerWidth="8" markerHeight="4.8" refX="8" refY="2.4" orient="auto">
    <polygon points="0 0, 8 2.4, 0 4.8" fill="var(--_arrow)" />
  </marker>
  <marker id="arrowhead-start" markerWidth="8" markerHeight="4.8" refX="0" refY="2.4" orient="auto-start-reverse">
    <polygon points="8 0, 0 2.4, 8 4.8" fill="var(--_arrow)" />
  </marker>
</defs>
<rect x="40" y="40" width="810.0500000000002" height="441" rx="0" ry="0" fill="var(--_group-fill)" stroke="var(--_node-stroke)" stroke-width="1" />
<rect x="40" y="40" width="810.0500000000002" height="28" rx="0" ry="0" fill="var(--_group-hdr)" stroke="var(--_node-stroke)" stroke-width="1" />
<text x="52" y="54" dy="0.35em" font-size="12" font-weight="600" fill="var(--_text-sec)">&quot;👁 Eyes 眼睛模块 — 盯市场&quot;</text>
<rect x="870.0500000000001" y="369" width="712.655" height="285" rx="0" ry="0" fill="var(--_group-fill)" stroke="var(--_node-stroke)" stroke-width="1" />
<rect x="870.0500000000001" y="369" width="712.655" height="28" rx="0" ry="0" fill="var(--_group-hdr)" stroke="var(--_node-stroke)" stroke-width="1" />
<text x="882.0500000000001" y="383" dy="0.35em" font-size="12" font-weight="600" fill="var(--_text-sec)">&quot;🧠 Brain 大脑模块 — 做分析&quot;</text>
<rect x="1602.705" y="196" width="1102.5874999999996" height="631" rx="0" ry="0" fill="var(--_group-fill)" stroke="var(--_node-stroke)" stroke-width="1" />
<rect x="1602.705" y="196" width="1102.5874999999996" height="28" rx="0" ry="0" fill="var(--_group-hdr)" stroke="var(--_node-stroke)" stroke-width="1" />
<text x="1614.705" y="210" dy="0.35em" font-size="12" font-weight="600" fill="var(--_text-sec)">&quot;🏷️ 持仓与关注 — 管状态&quot;</text>
<polyline points="181.67500000000018,132 181.67500000000018,270 339.6500000000002,270" fill="none" stroke="var(--_line)" stroke-width="0.75" marker-end="url(#arrowhead)" />
<polyline points="437.875,132 437.875,270 339.6500000000002,270" fill="none" stroke="var(--_line)" stroke-width="0.75" marker-end="url(#arrowhead)" />
<polyline points="708.375,132 708.375,270 564.7000000000002,270" fill="none" stroke="var(--_line)" stroke-width="0.75" marker-end="url(#arrowhead)" />
<polyline points="188.82499999999982,288 188.82499999999982,443 311.05,443" fill="none" stroke="var(--_line)" stroke-width="0.75" marker-end="url(#arrowhead)" />
<polyline points="452.1750000000002,288 452.1750000000002,443 564.7,443" fill="none" stroke="var(--_line)" stroke-width="0.75" marker-end="url(#arrowhead)" />
<polyline points="1167.8250000000003,461 1167.8250000000003,481 958.0375000000004,481 958.0375000000004,616 937.6550000000002,616" fill="none" stroke="var(--_line)" stroke-width="0.75" marker-end="url(#arrowhead)" />
<polyline points="1167.8250000000003,461 1167.8250000000003,481 1227.7300000000002,481 1227.7300000000002,598" fill="none" stroke="var(--_line)" stroke-width="0.75" marker-end="url(#arrowhead)" />
<polyline points="437.875,461 437.875,501 1021.5800000000002,501 1021.5800000000002,598" fill="none" stroke="var(--_line)" stroke-width="0.75" marker-end="url(#arrowhead)" />
<polyline points="1021.5800000000002,634 1021.5800000000002,654 1124.6550000000002,654 1124.6550000000002,674 2056.88,674 2056.88,789 2044.1550000000002,789" fill="none" stroke="var(--_line)" stroke-width="0.75" marker-end="url(#arrowhead)" />
<polyline points="1227.7300000000002,634 1227.7300000000002,674 2237.745,674 2237.745,789 2240.605,789" fill="none" stroke="var(--_line)" stroke-width="0.75" marker-end="url(#arrowhead)" />
<polyline points="1021.5800000000002,634 1021.5800000000002,654 988.6175000000003,654 988.6175000000003,674 1705.055,674 1705.055,771" fill="none" stroke="var(--_line)" stroke-width="0.75" marker-end="url(#arrowhead)" />
<polyline points="1021.5800000000002,634 1021.5800000000002,654 1104.6550000000002,654 1104.6550000000002,674 1914.78,674 1914.78,771" fill="none" stroke="var(--_line)" stroke-width="0.75" marker-end="url(#arrowhead)" />
<polyline points="2523.375,634 2523.375,654 2362.83,654 2362.83,771" fill="none" stroke="var(--_line)" stroke-width="0.75" marker-end="url(#arrowhead)" />
<polyline points="2523.375,634 2523.375,654 2583.2799999999997,654 2583.2799999999997,771" fill="none" stroke="var(--_line)" stroke-width="0.75" marker-end="url(#arrowhead)" />
<polyline points="2153.1049999999996,288 2153.1049999999996,308 2194.4249999999997,308 2194.4249999999997,616 1105.505,616" fill="none" stroke="var(--_line)" stroke-width="0.75" stroke-dasharray="4 4" marker-end="url(#arrowhead)" />
<polyline points="2153.1049999999996,288 2153.1049999999996,308 2111.785,308 2111.785,443 564.7,443" fill="none" stroke="var(--_line)" stroke-width="0.75" stroke-dasharray="4 4" marker-end="url(#arrowhead)" />
<rect x="429.87500000000017" y="343" width="44.6" height="27" rx="4" ry="4" fill="var(--bg)" stroke="var(--_inner-stroke)" stroke-width="0.5" />
<text x="452.1750000000002" y="356.5" text-anchor="middle" dy="0.35em" font-size="11" font-weight="400" fill="var(--_text-muted)">下一步建议</text>
<rect x="996.4200000000002" y="516" width="50.32" height="27" rx="4" ry="4" fill="var(--bg)" stroke="var(--_inner-stroke)" stroke-width="0.5" />
<text x="1021.5800000000002" y="529.5" text-anchor="middle" dy="0.35em" font-size="11" font-weight="400" fill="var(--_text-muted)">暗号路由建议</text>
<rect x="2031.72" y="689" width="50.32" height="27" rx="4" ry="4" fill="var(--bg)" stroke="var(--_inner-stroke)" stroke-width="0.5" />
<text x="2056.88" y="702.5" text-anchor="middle" dy="0.35em" font-size="11" font-weight="400" fill="var(--_text-muted)">写回分析结果</text>
<rect x="2224.025" y="689" width="27.44" height="27" rx="4" ry="4" fill="var(--bg)" stroke="var(--_inner-stroke)" stroke-width="0.5" />
<text x="2237.745" y="702.5" text-anchor="middle" dy="0.35em" font-size="11" font-weight="400" fill="var(--_text-muted)">建档</text>
<rect x="1685.615" y="689" width="38.88" height="27" rx="4" ry="4" fill="var(--bg)" stroke="var(--_inner-stroke)" stroke-width="0.5" />
<text x="1705.055" y="702.5" text-anchor="middle" dy="0.35em" font-size="11" font-weight="400" fill="var(--_text-muted)">更新状态</text>
<rect x="1895.34" y="689" width="38.88" height="27" rx="4" ry="4" fill="var(--bg)" stroke="var(--_inner-stroke)" stroke-width="0.5" />
<text x="1914.78" y="702.5" text-anchor="middle" dy="0.35em" font-size="11" font-weight="400" fill="var(--_text-muted)">更新状态</text>
<rect x="2169.265" y="429.5" width="50.32" height="27" rx="4" ry="4" fill="var(--bg)" stroke="var(--_inner-stroke)" stroke-width="0.5" />
<text x="2194.4249999999997" y="443" text-anchor="middle" dy="0.35em" font-size="11" font-weight="400" fill="var(--_text-muted)">驱动策略分析</text>
<rect x="2086.625" y="343" width="50.32" height="27" rx="4" ry="4" fill="var(--bg)" stroke="var(--_inner-stroke)" stroke-width="0.5" />
<text x="2111.785" y="356.5" text-anchor="middle" dy="0.35em" font-size="11" font-weight="400" fill="var(--_text-muted)">驱动雷达过滤</text>
<rect x="79.87500000000017" y="96" width="203.60000000000002" height="36" rx="0" ry="0" fill="#24283b" stroke="#2ac3de" stroke-width="0.75" />
<rect x="61.999999999999815" y="252" width="253.65" height="36" rx="0" ry="0" fill="#24283b" stroke="#2ac3de" stroke-width="0.75" />
<rect x="311.05" y="96" width="253.65" height="36" rx="0" ry="0" fill="#24283b" stroke="#2ac3de" stroke-width="0.75" />
<rect x="588.7" y="96" width="239.35000000000002" height="36" rx="0" ry="0" fill="#24283b" stroke="#2ac3de" stroke-width="0.75" />
<rect x="339.6500000000002" y="252" width="225.05" height="36" rx="0" ry="0" fill="#24283b" stroke="#7dcfff" stroke-width="0.75" />
<rect x="311.05" y="425" width="253.65" height="36" rx="0" ry="0" fill="#24283b" stroke="#7dcfff" stroke-width="0.75" />
<rect x="1033.8500000000004" y="425" width="267.95000000000005" height="36" rx="0" ry="0" fill="#24283b" stroke="#f7768e" stroke-width="0.75" />
<rect x="937.6550000000002" y="598" width="167.85000000000002" height="36" rx="0" ry="0" fill="#24283b" stroke="#ff9e64" stroke-width="0.75" />
<rect x="1129.5050000000003" y="598" width="196.45000000000002" height="36" rx="0" ry="0" fill="#24283b" stroke="#ff9e64" stroke-width="0.75" />
<rect x="1349.9550000000002" y="598" width="210.75000000000003" height="36" rx="0" ry="0" fill="#24283b" stroke="#bb9af7" stroke-width="0.75" />
<rect x="2051.3049999999994" y="252" width="203.60000000000002" height="36" rx="0" ry="0" fill="#24283b" stroke="#e0af68" stroke-width="0.75" />
<rect x="1624.7050000000002" y="771" width="160.70000000000002" height="36" rx="0" ry="0" fill="#24283b" stroke="#9ece6a" stroke-width="0.75" />
<rect x="1809.405" y="771" width="210.75000000000003" height="36" rx="0" ry="0" fill="#24283b" stroke="#9ece6a" stroke-width="0.75" />
<rect x="2044.1550000000002" y="771" width="196.45000000000002" height="36" rx="0" ry="0" fill="#24283b" stroke="#73daca" stroke-width="0.75" />
<rect x="2264.605" y="771" width="196.45000000000002" height="36" rx="0" ry="0" fill="#24283b" stroke="#9ece6a" stroke-width="0.75" />
<rect x="2485.055" y="771" width="196.45000000000002" height="36" rx="0" ry="0" fill="#24283b" stroke="#9ece6a" stroke-width="0.75" />
<rect x="2421.575" y="598" width="203.60000000000002" height="36" rx="0" ry="0" fill="#24283b" stroke="#9ece6a" stroke-width="0.75" />
<text x="181.67500000000018" y="114" text-anchor="middle" dy="0.35em" font-size="13" font-weight="500" fill="#c0caf5">fetch_rss.py&lt;br&gt;RSS 多源抓取</text>
<text x="188.82499999999982" y="270" text-anchor="middle" dy="0.35em" font-size="13" font-weight="500" fill="#c0caf5">fetch_price_router.py&lt;br&gt;三源价格路由</text>
<text x="437.875" y="114" text-anchor="middle" dy="0.35em" font-size="13" font-weight="500" fill="#c0caf5">fetch_market_api.py&lt;br&gt;市场事件 API</text>
<text x="708.375" y="114" text-anchor="middle" dy="0.35em" font-size="13" font-weight="500" fill="#c0caf5">fetch_finnhub_news.py&lt;br&gt;个股新闻</text>
<text x="452.1750000000002" y="270" text-anchor="middle" dy="0.35em" font-size="13" font-weight="500" fill="#c0caf5">SOP_市场洞察&lt;br&gt;P13 分析 → 每日市场日报</text>
<text x="437.875" y="443" text-anchor="middle" dy="0.35em" font-size="13" font-weight="500" fill="#c0caf5">SOP_投资雷达&lt;br&gt;趋势 + 价格 + 信号 → 桥接报告</text>
<text x="1167.8250000000003" y="443" text-anchor="middle" dy="0.35em" font-size="13" font-weight="500" fill="#c0caf5">P1-P16 提示词资产&lt;br&gt;Brain/references/</text>
<text x="1021.5800000000002" y="616" text-anchor="middle" dy="0.35em" font-size="13" font-weight="500" fill="#c0caf5">SOP_策略分析&lt;br&gt;5 条策略路由</text>
<text x="1227.7300000000002" y="616" text-anchor="middle" dy="0.35em" font-size="13" font-weight="500" fill="#c0caf5">SOP_初始调研&lt;br&gt;P1→P4→P2→P9</text>
<text x="1455.3300000000002" y="616" text-anchor="middle" dy="0.35em" font-size="13" font-weight="500" fill="#c0caf5">投资诊断模块&lt;br&gt;ymos-diagnosis/</text>
<text x="2153.1049999999996" y="270" text-anchor="middle" dy="0.35em" font-size="13" font-weight="500" fill="#c0caf5">当前关注方向与投资偏好.md&lt;br&gt;系统灵魂文件</text>
<text x="1705.055" y="789" text-anchor="middle" dy="0.35em" font-size="13" font-weight="500" fill="#c0caf5">持仓_状态机.md&lt;br&gt;持仓真相源</text>
<text x="1914.78" y="789" text-anchor="middle" dy="0.35em" font-size="13" font-weight="500" fill="#c0caf5">Watchlist_状态机.md&lt;br&gt;关注真相源</text>
<text x="2142.38" y="789" text-anchor="middle" dy="0.35em" font-size="13" font-weight="500" fill="#c0caf5">个股文件夹&lt;br&gt;知识库 + 研报 + 备忘录</text>
<text x="2362.83" y="789" text-anchor="middle" dy="0.35em" font-size="13" font-weight="500" fill="#c0caf5">持仓备忘录_视图.md&lt;br&gt;1 分钟扫盘看板</text>
<text x="2583.2799999999997" y="789" text-anchor="middle" dy="0.35em" font-size="13" font-weight="500" fill="#c0caf5">Dashboard HTML&lt;br&gt;可视化看板</text>
<text x="2523.375" y="616" text-anchor="middle" dy="0.35em" font-size="13" font-weight="500" fill="#c0caf5">SOP_持仓收口&lt;br&gt;一致性校验 + 刷新视图</text>
</svg>